%TF.GenerationSoftware,KiCad,Pcbnew,(6.0.5)*%
%TF.CreationDate,2022-08-19T06:06:55-03:00*%
%TF.ProjectId,chess_clock_proj,63686573-735f-4636-9c6f-636b5f70726f,v1.0*%
%TF.SameCoordinates,Original*%
%TF.FileFunction,Soldermask,Top*%
%TF.FilePolarity,Negative*%
%FSLAX46Y46*%
G04 Gerber Fmt 4.6, Leading zero omitted, Abs format (unit mm)*
G04 Created by KiCad (PCBNEW (6.0.5)) date 2022-08-19 06:06:55*
%MOMM*%
%LPD*%
G01*
G04 APERTURE LIST*
G04 Aperture macros list*
%AMRoundRect*
0 Rectangle with rounded corners*
0 $1 Rounding radius*
0 $2 $3 $4 $5 $6 $7 $8 $9 X,Y pos of 4 corners*
0 Add a 4 corners polygon primitive as box body*
4,1,4,$2,$3,$4,$5,$6,$7,$8,$9,$2,$3,0*
0 Add four circle primitives for the rounded corners*
1,1,$1+$1,$2,$3*
1,1,$1+$1,$4,$5*
1,1,$1+$1,$6,$7*
1,1,$1+$1,$8,$9*
0 Add four rect primitives between the rounded corners*
20,1,$1+$1,$2,$3,$4,$5,0*
20,1,$1+$1,$4,$5,$6,$7,0*
20,1,$1+$1,$6,$7,$8,$9,0*
20,1,$1+$1,$8,$9,$2,$3,0*%
G04 Aperture macros list end*
%ADD10RoundRect,0.135000X0.135000X0.185000X-0.135000X0.185000X-0.135000X-0.185000X0.135000X-0.185000X0*%
%ADD11C,2.100000*%
%ADD12R,1.600000X1.600000*%
%ADD13O,1.600000X1.600000*%
%ADD14C,2.000000*%
%ADD15RoundRect,0.140000X0.170000X-0.140000X0.170000X0.140000X-0.170000X0.140000X-0.170000X-0.140000X0*%
%ADD16RoundRect,0.225000X-0.225000X-0.250000X0.225000X-0.250000X0.225000X0.250000X-0.225000X0.250000X0*%
%ADD17RoundRect,0.135000X-0.185000X0.135000X-0.185000X-0.135000X0.185000X-0.135000X0.185000X0.135000X0*%
%ADD18C,1.600000*%
%ADD19C,2.150000*%
%ADD20RoundRect,0.135000X-0.135000X-0.185000X0.135000X-0.185000X0.135000X0.185000X-0.135000X0.185000X0*%
%ADD21C,2.500000*%
%ADD22R,2.230000X2.230000*%
%ADD23C,2.230000*%
%ADD24RoundRect,0.250000X0.475000X-0.250000X0.475000X0.250000X-0.475000X0.250000X-0.475000X-0.250000X0*%
%ADD25R,2.000000X1.500000*%
%ADD26R,2.000000X3.800000*%
%ADD27R,1.800000X1.800000*%
%ADD28C,1.800000*%
%ADD29R,1.700000X1.700000*%
%ADD30O,1.700000X1.700000*%
%ADD31RoundRect,0.135000X0.185000X-0.135000X0.185000X0.135000X-0.185000X0.135000X-0.185000X-0.135000X0*%
%ADD32RoundRect,0.075000X-0.662500X-0.075000X0.662500X-0.075000X0.662500X0.075000X-0.662500X0.075000X0*%
%ADD33RoundRect,0.075000X-0.075000X-0.662500X0.075000X-0.662500X0.075000X0.662500X-0.075000X0.662500X0*%
%ADD34RoundRect,0.140000X-0.140000X-0.170000X0.140000X-0.170000X0.140000X0.170000X-0.140000X0.170000X0*%
%ADD35R,1.200000X1.400000*%
%ADD36RoundRect,0.140000X0.140000X0.170000X-0.140000X0.170000X-0.140000X-0.170000X0.140000X-0.170000X0*%
%ADD37C,1.700000*%
G04 APERTURE END LIST*
D10*
%TO.C,R8*%
X205710000Y-66400000D03*
X204690000Y-66400000D03*
%TD*%
D11*
%TO.C,H4*%
X216520000Y-125980000D03*
%TD*%
D12*
%TO.C,SW7*%
X88300000Y-59132500D03*
D13*
X88300000Y-66752500D03*
%TD*%
D14*
%TO.C,SW6*%
X157185000Y-123580000D03*
X163685000Y-123580000D03*
X157185000Y-128080000D03*
X163685000Y-128080000D03*
%TD*%
D11*
%TO.C,H1*%
X80020000Y-62580000D03*
%TD*%
D15*
%TO.C,C3*%
X169000000Y-105180000D03*
X169000000Y-104220000D03*
%TD*%
D16*
%TO.C,C1*%
X171225000Y-95300000D03*
X172775000Y-95300000D03*
%TD*%
D17*
%TO.C,R4*%
X174300000Y-94990000D03*
X174300000Y-96010000D03*
%TD*%
D12*
%TO.C,J1*%
X210510000Y-82000000D03*
D18*
X208510000Y-82000000D03*
X206510000Y-82000000D03*
X204510000Y-82000000D03*
D19*
X211240000Y-79280000D03*
X204240000Y-84720000D03*
X204240000Y-79280000D03*
X211240000Y-84720000D03*
%TD*%
D14*
%TO.C,SW2*%
X145435000Y-123330000D03*
X151935000Y-123330000D03*
X151935000Y-127830000D03*
X145435000Y-127830000D03*
%TD*%
D20*
%TO.C,R1*%
X149090000Y-96700000D03*
X150110000Y-96700000D03*
%TD*%
D21*
%TO.C,J4*%
X172350000Y-61650000D03*
X122650000Y-61650000D03*
X122650000Y-71150000D03*
X172350000Y-71150000D03*
D22*
X96500000Y-66400000D03*
D23*
X198500000Y-66400000D03*
%TD*%
D14*
%TO.C,SW4*%
X139435000Y-123330000D03*
X132935000Y-123330000D03*
X132935000Y-127830000D03*
X139435000Y-127830000D03*
%TD*%
D11*
%TO.C,H2*%
X216520000Y-62580000D03*
%TD*%
D24*
%TO.C,C9*%
X209710000Y-76180000D03*
X209710000Y-74280000D03*
%TD*%
D10*
%TO.C,R2*%
X98510000Y-96500000D03*
X97490000Y-96500000D03*
%TD*%
D24*
%TO.C,C10*%
X209710000Y-71980000D03*
X209710000Y-70080000D03*
%TD*%
D25*
%TO.C,U2*%
X213050000Y-70800000D03*
D26*
X219350000Y-73100000D03*
D25*
X213050000Y-73100000D03*
X213050000Y-75400000D03*
%TD*%
D27*
%TO.C,D4*%
X205725000Y-61100000D03*
D28*
X208265000Y-61100000D03*
%TD*%
D29*
%TO.C,J2*%
X184842500Y-102622500D03*
D30*
X184842500Y-100082500D03*
X184842500Y-97542500D03*
X184842500Y-95002500D03*
%TD*%
D29*
%TO.C,J3*%
X191100000Y-92200000D03*
D30*
X191100000Y-89660000D03*
X191100000Y-87120000D03*
X191100000Y-84580000D03*
%TD*%
D31*
%TO.C,R5*%
X206500000Y-89410000D03*
X206500000Y-88390000D03*
%TD*%
D27*
%TO.C,D3*%
X190292500Y-100542500D03*
D28*
X192832500Y-100542500D03*
%TD*%
D14*
%TO.C,SW5*%
X206900000Y-103000000D03*
X213400000Y-103000000D03*
X213400000Y-98500000D03*
X206900000Y-98500000D03*
%TD*%
D32*
%TO.C,U1*%
X170880000Y-100172500D03*
X170880000Y-100672500D03*
X170880000Y-101172500D03*
X170880000Y-101672500D03*
X170880000Y-102172500D03*
X170880000Y-102672500D03*
X170880000Y-103172500D03*
X170880000Y-103672500D03*
X170880000Y-104172500D03*
X170880000Y-104672500D03*
X170880000Y-105172500D03*
X170880000Y-105672500D03*
D33*
X172292500Y-107085000D03*
X172792500Y-107085000D03*
X173292500Y-107085000D03*
X173792500Y-107085000D03*
X174292500Y-107085000D03*
X174792500Y-107085000D03*
X175292500Y-107085000D03*
X175792500Y-107085000D03*
X176292500Y-107085000D03*
X176792500Y-107085000D03*
X177292500Y-107085000D03*
X177792500Y-107085000D03*
D32*
X179205000Y-105672500D03*
X179205000Y-105172500D03*
X179205000Y-104672500D03*
X179205000Y-104172500D03*
X179205000Y-103672500D03*
X179205000Y-103172500D03*
X179205000Y-102672500D03*
X179205000Y-102172500D03*
X179205000Y-101672500D03*
X179205000Y-101172500D03*
X179205000Y-100672500D03*
X179205000Y-100172500D03*
D33*
X177792500Y-98760000D03*
X177292500Y-98760000D03*
X176792500Y-98760000D03*
X176292500Y-98760000D03*
X175792500Y-98760000D03*
X175292500Y-98760000D03*
X174792500Y-98760000D03*
X174292500Y-98760000D03*
X173792500Y-98760000D03*
X173292500Y-98760000D03*
X172792500Y-98760000D03*
X172292500Y-98760000D03*
%TD*%
D34*
%TO.C,C2*%
X171820000Y-97000000D03*
X172780000Y-97000000D03*
%TD*%
D20*
%TO.C,R3*%
X193332500Y-96322500D03*
X194352500Y-96322500D03*
%TD*%
D34*
%TO.C,C4*%
X180320000Y-98500000D03*
X181280000Y-98500000D03*
%TD*%
D35*
%TO.C,Y1*%
X164762500Y-102822500D03*
X164762500Y-105022500D03*
X166462500Y-105022500D03*
X166462500Y-102822500D03*
%TD*%
D36*
%TO.C,C6*%
X166452500Y-109032500D03*
X165492500Y-109032500D03*
%TD*%
D14*
%TO.C,SW1*%
X177050000Y-77100000D03*
X171050000Y-89100000D03*
X177050000Y-89100000D03*
X171050000Y-77100000D03*
D37*
X172800000Y-87100000D03*
X172800000Y-83100000D03*
X172800000Y-79100000D03*
%TD*%
D27*
%TO.C,D2*%
X101075000Y-100800000D03*
D28*
X98535000Y-100800000D03*
%TD*%
D36*
%TO.C,C5*%
X177812500Y-109000000D03*
X176852500Y-109000000D03*
%TD*%
D17*
%TO.C,R6*%
X188210000Y-89670000D03*
X188210000Y-90690000D03*
%TD*%
D34*
%TO.C,C7*%
X163052500Y-107522500D03*
X164012500Y-107522500D03*
%TD*%
D27*
%TO.C,D1*%
X148575000Y-100700000D03*
D28*
X146035000Y-100700000D03*
%TD*%
D36*
%TO.C,C8*%
X166462500Y-107522500D03*
X165502500Y-107522500D03*
%TD*%
D17*
%TO.C,R7*%
X195247500Y-87137500D03*
X195247500Y-88157500D03*
%TD*%
D11*
%TO.C,H3*%
X80020000Y-125980000D03*
%TD*%
D14*
%TO.C,SW3*%
X89360000Y-102750000D03*
X82860000Y-102750000D03*
X89360000Y-98250000D03*
X82860000Y-98250000D03*
%TD*%
M02*
