%TF.GenerationSoftware,KiCad,Pcbnew,(6.0.5)*%
%TF.CreationDate,2022-08-19T06:06:55-03:00*%
%TF.ProjectId,chess_clock_proj,63686573-735f-4636-9c6f-636b5f70726f,v1.0*%
%TF.SameCoordinates,Original*%
%TF.FileFunction,Soldermask,Bot*%
%TF.FilePolarity,Negative*%
%FSLAX46Y46*%
G04 Gerber Fmt 4.6, Leading zero omitted, Abs format (unit mm)*
G04 Created by KiCad (PCBNEW (6.0.5)) date 2022-08-19 06:06:55*
%MOMM*%
%LPD*%
G01*
G04 APERTURE LIST*
%ADD10C,2.100000*%
%ADD11R,1.600000X1.600000*%
%ADD12O,1.600000X1.600000*%
%ADD13C,2.000000*%
%ADD14C,1.600000*%
%ADD15C,2.150000*%
%ADD16C,2.500000*%
%ADD17R,2.230000X2.230000*%
%ADD18C,2.230000*%
%ADD19R,1.800000X1.800000*%
%ADD20C,1.800000*%
%ADD21R,1.700000X1.700000*%
%ADD22O,1.700000X1.700000*%
%ADD23C,1.700000*%
G04 APERTURE END LIST*
D10*
%TO.C,H4*%
X216520000Y-125980000D03*
%TD*%
D11*
%TO.C,SW7*%
X88300000Y-59132500D03*
D12*
X88300000Y-66752500D03*
%TD*%
D13*
%TO.C,SW6*%
X157185000Y-123580000D03*
X163685000Y-123580000D03*
X157185000Y-128080000D03*
X163685000Y-128080000D03*
%TD*%
D10*
%TO.C,H1*%
X80020000Y-62580000D03*
%TD*%
D11*
%TO.C,J1*%
X210510000Y-82000000D03*
D14*
X208510000Y-82000000D03*
X206510000Y-82000000D03*
X204510000Y-82000000D03*
D15*
X211240000Y-79280000D03*
X204240000Y-84720000D03*
X204240000Y-79280000D03*
X211240000Y-84720000D03*
%TD*%
D13*
%TO.C,SW2*%
X145435000Y-123330000D03*
X151935000Y-123330000D03*
X151935000Y-127830000D03*
X145435000Y-127830000D03*
%TD*%
D16*
%TO.C,J4*%
X172350000Y-61650000D03*
X122650000Y-61650000D03*
X122650000Y-71150000D03*
X172350000Y-71150000D03*
D17*
X96500000Y-66400000D03*
D18*
X198500000Y-66400000D03*
%TD*%
D13*
%TO.C,SW4*%
X139435000Y-123330000D03*
X132935000Y-123330000D03*
X132935000Y-127830000D03*
X139435000Y-127830000D03*
%TD*%
D10*
%TO.C,H2*%
X216520000Y-62580000D03*
%TD*%
D19*
%TO.C,D4*%
X205725000Y-61100000D03*
D20*
X208265000Y-61100000D03*
%TD*%
D21*
%TO.C,J2*%
X184842500Y-102622500D03*
D22*
X184842500Y-100082500D03*
X184842500Y-97542500D03*
X184842500Y-95002500D03*
%TD*%
D21*
%TO.C,J3*%
X191100000Y-92200000D03*
D22*
X191100000Y-89660000D03*
X191100000Y-87120000D03*
X191100000Y-84580000D03*
%TD*%
D19*
%TO.C,D3*%
X190292500Y-100542500D03*
D20*
X192832500Y-100542500D03*
%TD*%
D13*
%TO.C,SW5*%
X206900000Y-103000000D03*
X213400000Y-103000000D03*
X213400000Y-98500000D03*
X206900000Y-98500000D03*
%TD*%
%TO.C,SW1*%
X177050000Y-77100000D03*
X171050000Y-89100000D03*
X177050000Y-89100000D03*
X171050000Y-77100000D03*
D23*
X172800000Y-87100000D03*
X172800000Y-83100000D03*
X172800000Y-79100000D03*
%TD*%
D19*
%TO.C,D2*%
X101075000Y-100800000D03*
D20*
X98535000Y-100800000D03*
%TD*%
D19*
%TO.C,D1*%
X148575000Y-100700000D03*
D20*
X146035000Y-100700000D03*
%TD*%
D10*
%TO.C,H3*%
X80020000Y-125980000D03*
%TD*%
D13*
%TO.C,SW3*%
X89360000Y-102750000D03*
X82860000Y-102750000D03*
X89360000Y-98250000D03*
X82860000Y-98250000D03*
%TD*%
M02*
