%TF.GenerationSoftware,KiCad,Pcbnew,(6.0.5)*%
%TF.CreationDate,2022-08-19T06:06:55-03:00*%
%TF.ProjectId,chess_clock_proj,63686573-735f-4636-9c6f-636b5f70726f,v1.0*%
%TF.SameCoordinates,Original*%
%TF.FileFunction,Legend,Top*%
%TF.FilePolarity,Positive*%
%FSLAX46Y46*%
G04 Gerber Fmt 4.6, Leading zero omitted, Abs format (unit mm)*
G04 Created by KiCad (PCBNEW (6.0.5)) date 2022-08-19 06:06:55*
%MOMM*%
%LPD*%
G01*
G04 APERTURE LIST*
%ADD10C,0.150000*%
%ADD11C,0.120000*%
G04 APERTURE END LIST*
D10*
%TO.C,R8*%
X205033333Y-68022380D02*
X204700000Y-67546190D01*
X204461904Y-68022380D02*
X204461904Y-67022380D01*
X204842857Y-67022380D01*
X204938095Y-67070000D01*
X204985714Y-67117619D01*
X205033333Y-67212857D01*
X205033333Y-67355714D01*
X204985714Y-67450952D01*
X204938095Y-67498571D01*
X204842857Y-67546190D01*
X204461904Y-67546190D01*
X205604761Y-67450952D02*
X205509523Y-67403333D01*
X205461904Y-67355714D01*
X205414285Y-67260476D01*
X205414285Y-67212857D01*
X205461904Y-67117619D01*
X205509523Y-67070000D01*
X205604761Y-67022380D01*
X205795238Y-67022380D01*
X205890476Y-67070000D01*
X205938095Y-67117619D01*
X205985714Y-67212857D01*
X205985714Y-67260476D01*
X205938095Y-67355714D01*
X205890476Y-67403333D01*
X205795238Y-67450952D01*
X205604761Y-67450952D01*
X205509523Y-67498571D01*
X205461904Y-67546190D01*
X205414285Y-67641428D01*
X205414285Y-67831904D01*
X205461904Y-67927142D01*
X205509523Y-67974761D01*
X205604761Y-68022380D01*
X205795238Y-68022380D01*
X205890476Y-67974761D01*
X205938095Y-67927142D01*
X205985714Y-67831904D01*
X205985714Y-67641428D01*
X205938095Y-67546190D01*
X205890476Y-67498571D01*
X205795238Y-67450952D01*
%TO.C,H4*%
X215758095Y-123232380D02*
X215758095Y-122232380D01*
X215758095Y-122708571D02*
X216329523Y-122708571D01*
X216329523Y-123232380D02*
X216329523Y-122232380D01*
X217234285Y-122565714D02*
X217234285Y-123232380D01*
X216996190Y-122184761D02*
X216758095Y-122899047D01*
X217377142Y-122899047D01*
%TO.C,SW7*%
X92124761Y-64275833D02*
X92172380Y-64132976D01*
X92172380Y-63894880D01*
X92124761Y-63799642D01*
X92077142Y-63752023D01*
X91981904Y-63704404D01*
X91886666Y-63704404D01*
X91791428Y-63752023D01*
X91743809Y-63799642D01*
X91696190Y-63894880D01*
X91648571Y-64085357D01*
X91600952Y-64180595D01*
X91553333Y-64228214D01*
X91458095Y-64275833D01*
X91362857Y-64275833D01*
X91267619Y-64228214D01*
X91220000Y-64180595D01*
X91172380Y-64085357D01*
X91172380Y-63847261D01*
X91220000Y-63704404D01*
X91172380Y-63371071D02*
X92172380Y-63132976D01*
X91458095Y-62942500D01*
X92172380Y-62752023D01*
X91172380Y-62513928D01*
X91172380Y-62228214D02*
X91172380Y-61561547D01*
X92172380Y-61990119D01*
%TO.C,SW6*%
X159101666Y-121984761D02*
X159244523Y-122032380D01*
X159482619Y-122032380D01*
X159577857Y-121984761D01*
X159625476Y-121937142D01*
X159673095Y-121841904D01*
X159673095Y-121746666D01*
X159625476Y-121651428D01*
X159577857Y-121603809D01*
X159482619Y-121556190D01*
X159292142Y-121508571D01*
X159196904Y-121460952D01*
X159149285Y-121413333D01*
X159101666Y-121318095D01*
X159101666Y-121222857D01*
X159149285Y-121127619D01*
X159196904Y-121080000D01*
X159292142Y-121032380D01*
X159530238Y-121032380D01*
X159673095Y-121080000D01*
X160006428Y-121032380D02*
X160244523Y-122032380D01*
X160435000Y-121318095D01*
X160625476Y-122032380D01*
X160863571Y-121032380D01*
X161673095Y-121032380D02*
X161482619Y-121032380D01*
X161387380Y-121080000D01*
X161339761Y-121127619D01*
X161244523Y-121270476D01*
X161196904Y-121460952D01*
X161196904Y-121841904D01*
X161244523Y-121937142D01*
X161292142Y-121984761D01*
X161387380Y-122032380D01*
X161577857Y-122032380D01*
X161673095Y-121984761D01*
X161720714Y-121937142D01*
X161768333Y-121841904D01*
X161768333Y-121603809D01*
X161720714Y-121508571D01*
X161673095Y-121460952D01*
X161577857Y-121413333D01*
X161387380Y-121413333D01*
X161292142Y-121460952D01*
X161244523Y-121508571D01*
X161196904Y-121603809D01*
%TO.C,H1*%
X79258095Y-59832380D02*
X79258095Y-58832380D01*
X79258095Y-59308571D02*
X79829523Y-59308571D01*
X79829523Y-59832380D02*
X79829523Y-58832380D01*
X80829523Y-59832380D02*
X80258095Y-59832380D01*
X80543809Y-59832380D02*
X80543809Y-58832380D01*
X80448571Y-58975238D01*
X80353333Y-59070476D01*
X80258095Y-59118095D01*
%TO.C,C3*%
X168633333Y-103457142D02*
X168585714Y-103504761D01*
X168442857Y-103552380D01*
X168347619Y-103552380D01*
X168204761Y-103504761D01*
X168109523Y-103409523D01*
X168061904Y-103314285D01*
X168014285Y-103123809D01*
X168014285Y-102980952D01*
X168061904Y-102790476D01*
X168109523Y-102695238D01*
X168204761Y-102600000D01*
X168347619Y-102552380D01*
X168442857Y-102552380D01*
X168585714Y-102600000D01*
X168633333Y-102647619D01*
X168966666Y-102552380D02*
X169585714Y-102552380D01*
X169252380Y-102933333D01*
X169395238Y-102933333D01*
X169490476Y-102980952D01*
X169538095Y-103028571D01*
X169585714Y-103123809D01*
X169585714Y-103361904D01*
X169538095Y-103457142D01*
X169490476Y-103504761D01*
X169395238Y-103552380D01*
X169109523Y-103552380D01*
X169014285Y-103504761D01*
X168966666Y-103457142D01*
%TO.C,C1*%
X171833333Y-94227142D02*
X171785714Y-94274761D01*
X171642857Y-94322380D01*
X171547619Y-94322380D01*
X171404761Y-94274761D01*
X171309523Y-94179523D01*
X171261904Y-94084285D01*
X171214285Y-93893809D01*
X171214285Y-93750952D01*
X171261904Y-93560476D01*
X171309523Y-93465238D01*
X171404761Y-93370000D01*
X171547619Y-93322380D01*
X171642857Y-93322380D01*
X171785714Y-93370000D01*
X171833333Y-93417619D01*
X172785714Y-94322380D02*
X172214285Y-94322380D01*
X172500000Y-94322380D02*
X172500000Y-93322380D01*
X172404761Y-93465238D01*
X172309523Y-93560476D01*
X172214285Y-93608095D01*
%TO.C,R4*%
X175733333Y-95852380D02*
X175400000Y-95376190D01*
X175161904Y-95852380D02*
X175161904Y-94852380D01*
X175542857Y-94852380D01*
X175638095Y-94900000D01*
X175685714Y-94947619D01*
X175733333Y-95042857D01*
X175733333Y-95185714D01*
X175685714Y-95280952D01*
X175638095Y-95328571D01*
X175542857Y-95376190D01*
X175161904Y-95376190D01*
X176590476Y-95185714D02*
X176590476Y-95852380D01*
X176352380Y-94804761D02*
X176114285Y-95519047D01*
X176733333Y-95519047D01*
%TO.C,J1*%
X210176666Y-86532380D02*
X210176666Y-87246666D01*
X210129047Y-87389523D01*
X210033809Y-87484761D01*
X209890952Y-87532380D01*
X209795714Y-87532380D01*
X211176666Y-87532380D02*
X210605238Y-87532380D01*
X210890952Y-87532380D02*
X210890952Y-86532380D01*
X210795714Y-86675238D01*
X210700476Y-86770476D01*
X210605238Y-86818095D01*
%TO.C,SW2*%
X147351666Y-121734761D02*
X147494523Y-121782380D01*
X147732619Y-121782380D01*
X147827857Y-121734761D01*
X147875476Y-121687142D01*
X147923095Y-121591904D01*
X147923095Y-121496666D01*
X147875476Y-121401428D01*
X147827857Y-121353809D01*
X147732619Y-121306190D01*
X147542142Y-121258571D01*
X147446904Y-121210952D01*
X147399285Y-121163333D01*
X147351666Y-121068095D01*
X147351666Y-120972857D01*
X147399285Y-120877619D01*
X147446904Y-120830000D01*
X147542142Y-120782380D01*
X147780238Y-120782380D01*
X147923095Y-120830000D01*
X148256428Y-120782380D02*
X148494523Y-121782380D01*
X148685000Y-121068095D01*
X148875476Y-121782380D01*
X149113571Y-120782380D01*
X149446904Y-120877619D02*
X149494523Y-120830000D01*
X149589761Y-120782380D01*
X149827857Y-120782380D01*
X149923095Y-120830000D01*
X149970714Y-120877619D01*
X150018333Y-120972857D01*
X150018333Y-121068095D01*
X149970714Y-121210952D01*
X149399285Y-121782380D01*
X150018333Y-121782380D01*
%TO.C,R1*%
X149433333Y-95982380D02*
X149100000Y-95506190D01*
X148861904Y-95982380D02*
X148861904Y-94982380D01*
X149242857Y-94982380D01*
X149338095Y-95030000D01*
X149385714Y-95077619D01*
X149433333Y-95172857D01*
X149433333Y-95315714D01*
X149385714Y-95410952D01*
X149338095Y-95458571D01*
X149242857Y-95506190D01*
X148861904Y-95506190D01*
X150385714Y-95982380D02*
X149814285Y-95982380D01*
X150100000Y-95982380D02*
X150100000Y-94982380D01*
X150004761Y-95125238D01*
X149909523Y-95220476D01*
X149814285Y-95268095D01*
%TO.C,J4*%
X96166666Y-69352380D02*
X96166666Y-70066666D01*
X96119047Y-70209523D01*
X96023809Y-70304761D01*
X95880952Y-70352380D01*
X95785714Y-70352380D01*
X97071428Y-69685714D02*
X97071428Y-70352380D01*
X96833333Y-69304761D02*
X96595238Y-70019047D01*
X97214285Y-70019047D01*
X202328571Y-66507142D02*
X203471428Y-66507142D01*
X110633571Y-66507142D02*
X111776428Y-66507142D01*
X111205000Y-67078571D02*
X111205000Y-65935714D01*
X161633571Y-66507142D02*
X162776428Y-66507142D01*
X162205000Y-67078571D02*
X162205000Y-65935714D01*
X183223571Y-66507142D02*
X184366428Y-66507142D01*
X91528571Y-66507142D02*
X92671428Y-66507142D01*
X92100000Y-67078571D02*
X92100000Y-65935714D01*
X132223571Y-66507142D02*
X133366428Y-66507142D01*
%TO.C,SW4*%
X134851666Y-121734761D02*
X134994523Y-121782380D01*
X135232619Y-121782380D01*
X135327857Y-121734761D01*
X135375476Y-121687142D01*
X135423095Y-121591904D01*
X135423095Y-121496666D01*
X135375476Y-121401428D01*
X135327857Y-121353809D01*
X135232619Y-121306190D01*
X135042142Y-121258571D01*
X134946904Y-121210952D01*
X134899285Y-121163333D01*
X134851666Y-121068095D01*
X134851666Y-120972857D01*
X134899285Y-120877619D01*
X134946904Y-120830000D01*
X135042142Y-120782380D01*
X135280238Y-120782380D01*
X135423095Y-120830000D01*
X135756428Y-120782380D02*
X135994523Y-121782380D01*
X136185000Y-121068095D01*
X136375476Y-121782380D01*
X136613571Y-120782380D01*
X137423095Y-121115714D02*
X137423095Y-121782380D01*
X137185000Y-120734761D02*
X136946904Y-121449047D01*
X137565952Y-121449047D01*
%TO.C,H2*%
X215758095Y-59832380D02*
X215758095Y-58832380D01*
X215758095Y-59308571D02*
X216329523Y-59308571D01*
X216329523Y-59832380D02*
X216329523Y-58832380D01*
X216758095Y-58927619D02*
X216805714Y-58880000D01*
X216900952Y-58832380D01*
X217139047Y-58832380D01*
X217234285Y-58880000D01*
X217281904Y-58927619D01*
X217329523Y-59022857D01*
X217329523Y-59118095D01*
X217281904Y-59260952D01*
X216710476Y-59832380D01*
X217329523Y-59832380D01*
%TO.C,C9*%
X207503333Y-75617142D02*
X207455714Y-75664761D01*
X207312857Y-75712380D01*
X207217619Y-75712380D01*
X207074761Y-75664761D01*
X206979523Y-75569523D01*
X206931904Y-75474285D01*
X206884285Y-75283809D01*
X206884285Y-75140952D01*
X206931904Y-74950476D01*
X206979523Y-74855238D01*
X207074761Y-74760000D01*
X207217619Y-74712380D01*
X207312857Y-74712380D01*
X207455714Y-74760000D01*
X207503333Y-74807619D01*
X207979523Y-75712380D02*
X208170000Y-75712380D01*
X208265238Y-75664761D01*
X208312857Y-75617142D01*
X208408095Y-75474285D01*
X208455714Y-75283809D01*
X208455714Y-74902857D01*
X208408095Y-74807619D01*
X208360476Y-74760000D01*
X208265238Y-74712380D01*
X208074761Y-74712380D01*
X207979523Y-74760000D01*
X207931904Y-74807619D01*
X207884285Y-74902857D01*
X207884285Y-75140952D01*
X207931904Y-75236190D01*
X207979523Y-75283809D01*
X208074761Y-75331428D01*
X208265238Y-75331428D01*
X208360476Y-75283809D01*
X208408095Y-75236190D01*
X208455714Y-75140952D01*
%TO.C,R2*%
X97833333Y-98122380D02*
X97500000Y-97646190D01*
X97261904Y-98122380D02*
X97261904Y-97122380D01*
X97642857Y-97122380D01*
X97738095Y-97170000D01*
X97785714Y-97217619D01*
X97833333Y-97312857D01*
X97833333Y-97455714D01*
X97785714Y-97550952D01*
X97738095Y-97598571D01*
X97642857Y-97646190D01*
X97261904Y-97646190D01*
X98214285Y-97217619D02*
X98261904Y-97170000D01*
X98357142Y-97122380D01*
X98595238Y-97122380D01*
X98690476Y-97170000D01*
X98738095Y-97217619D01*
X98785714Y-97312857D01*
X98785714Y-97408095D01*
X98738095Y-97550952D01*
X98166666Y-98122380D01*
X98785714Y-98122380D01*
%TO.C,C10*%
X206527142Y-71547142D02*
X206479523Y-71594761D01*
X206336666Y-71642380D01*
X206241428Y-71642380D01*
X206098571Y-71594761D01*
X206003333Y-71499523D01*
X205955714Y-71404285D01*
X205908095Y-71213809D01*
X205908095Y-71070952D01*
X205955714Y-70880476D01*
X206003333Y-70785238D01*
X206098571Y-70690000D01*
X206241428Y-70642380D01*
X206336666Y-70642380D01*
X206479523Y-70690000D01*
X206527142Y-70737619D01*
X207479523Y-71642380D02*
X206908095Y-71642380D01*
X207193809Y-71642380D02*
X207193809Y-70642380D01*
X207098571Y-70785238D01*
X207003333Y-70880476D01*
X206908095Y-70928095D01*
X208098571Y-70642380D02*
X208193809Y-70642380D01*
X208289047Y-70690000D01*
X208336666Y-70737619D01*
X208384285Y-70832857D01*
X208431904Y-71023333D01*
X208431904Y-71261428D01*
X208384285Y-71451904D01*
X208336666Y-71547142D01*
X208289047Y-71594761D01*
X208193809Y-71642380D01*
X208098571Y-71642380D01*
X208003333Y-71594761D01*
X207955714Y-71547142D01*
X207908095Y-71451904D01*
X207860476Y-71261428D01*
X207860476Y-71023333D01*
X207908095Y-70832857D01*
X207955714Y-70737619D01*
X208003333Y-70690000D01*
X208098571Y-70642380D01*
%TO.C,U2*%
X215438095Y-68052380D02*
X215438095Y-68861904D01*
X215485714Y-68957142D01*
X215533333Y-69004761D01*
X215628571Y-69052380D01*
X215819047Y-69052380D01*
X215914285Y-69004761D01*
X215961904Y-68957142D01*
X216009523Y-68861904D01*
X216009523Y-68052380D01*
X216438095Y-68147619D02*
X216485714Y-68100000D01*
X216580952Y-68052380D01*
X216819047Y-68052380D01*
X216914285Y-68100000D01*
X216961904Y-68147619D01*
X217009523Y-68242857D01*
X217009523Y-68338095D01*
X216961904Y-68480952D01*
X216390476Y-69052380D01*
X217009523Y-69052380D01*
%TO.C,D4*%
X210661904Y-61552380D02*
X210661904Y-60552380D01*
X210900000Y-60552380D01*
X211042857Y-60600000D01*
X211138095Y-60695238D01*
X211185714Y-60790476D01*
X211233333Y-60980952D01*
X211233333Y-61123809D01*
X211185714Y-61314285D01*
X211138095Y-61409523D01*
X211042857Y-61504761D01*
X210900000Y-61552380D01*
X210661904Y-61552380D01*
X212090476Y-60885714D02*
X212090476Y-61552380D01*
X211852380Y-60504761D02*
X211614285Y-61219047D01*
X212233333Y-61219047D01*
%TO.C,J2*%
X184509166Y-104404880D02*
X184509166Y-105119166D01*
X184461547Y-105262023D01*
X184366309Y-105357261D01*
X184223452Y-105404880D01*
X184128214Y-105404880D01*
X184937738Y-104500119D02*
X184985357Y-104452500D01*
X185080595Y-104404880D01*
X185318690Y-104404880D01*
X185413928Y-104452500D01*
X185461547Y-104500119D01*
X185509166Y-104595357D01*
X185509166Y-104690595D01*
X185461547Y-104833452D01*
X184890119Y-105404880D01*
X185509166Y-105404880D01*
%TO.C,J3*%
X190766666Y-81452380D02*
X190766666Y-82166666D01*
X190719047Y-82309523D01*
X190623809Y-82404761D01*
X190480952Y-82452380D01*
X190385714Y-82452380D01*
X191147619Y-81452380D02*
X191766666Y-81452380D01*
X191433333Y-81833333D01*
X191576190Y-81833333D01*
X191671428Y-81880952D01*
X191719047Y-81928571D01*
X191766666Y-82023809D01*
X191766666Y-82261904D01*
X191719047Y-82357142D01*
X191671428Y-82404761D01*
X191576190Y-82452380D01*
X191290476Y-82452380D01*
X191195238Y-82404761D01*
X191147619Y-82357142D01*
%TO.C,R5*%
X204633333Y-89352380D02*
X204300000Y-88876190D01*
X204061904Y-89352380D02*
X204061904Y-88352380D01*
X204442857Y-88352380D01*
X204538095Y-88400000D01*
X204585714Y-88447619D01*
X204633333Y-88542857D01*
X204633333Y-88685714D01*
X204585714Y-88780952D01*
X204538095Y-88828571D01*
X204442857Y-88876190D01*
X204061904Y-88876190D01*
X205538095Y-88352380D02*
X205061904Y-88352380D01*
X205014285Y-88828571D01*
X205061904Y-88780952D01*
X205157142Y-88733333D01*
X205395238Y-88733333D01*
X205490476Y-88780952D01*
X205538095Y-88828571D01*
X205585714Y-88923809D01*
X205585714Y-89161904D01*
X205538095Y-89257142D01*
X205490476Y-89304761D01*
X205395238Y-89352380D01*
X205157142Y-89352380D01*
X205061904Y-89304761D01*
X205014285Y-89257142D01*
%TO.C,D3*%
X190824404Y-97034880D02*
X190824404Y-96034880D01*
X191062500Y-96034880D01*
X191205357Y-96082500D01*
X191300595Y-96177738D01*
X191348214Y-96272976D01*
X191395833Y-96463452D01*
X191395833Y-96606309D01*
X191348214Y-96796785D01*
X191300595Y-96892023D01*
X191205357Y-96987261D01*
X191062500Y-97034880D01*
X190824404Y-97034880D01*
X191729166Y-96034880D02*
X192348214Y-96034880D01*
X192014880Y-96415833D01*
X192157738Y-96415833D01*
X192252976Y-96463452D01*
X192300595Y-96511071D01*
X192348214Y-96606309D01*
X192348214Y-96844404D01*
X192300595Y-96939642D01*
X192252976Y-96987261D01*
X192157738Y-97034880D01*
X191872023Y-97034880D01*
X191776785Y-96987261D01*
X191729166Y-96939642D01*
%TO.C,SW5*%
X208816666Y-105404761D02*
X208959523Y-105452380D01*
X209197619Y-105452380D01*
X209292857Y-105404761D01*
X209340476Y-105357142D01*
X209388095Y-105261904D01*
X209388095Y-105166666D01*
X209340476Y-105071428D01*
X209292857Y-105023809D01*
X209197619Y-104976190D01*
X209007142Y-104928571D01*
X208911904Y-104880952D01*
X208864285Y-104833333D01*
X208816666Y-104738095D01*
X208816666Y-104642857D01*
X208864285Y-104547619D01*
X208911904Y-104500000D01*
X209007142Y-104452380D01*
X209245238Y-104452380D01*
X209388095Y-104500000D01*
X209721428Y-104452380D02*
X209959523Y-105452380D01*
X210150000Y-104738095D01*
X210340476Y-105452380D01*
X210578571Y-104452380D01*
X211435714Y-104452380D02*
X210959523Y-104452380D01*
X210911904Y-104928571D01*
X210959523Y-104880952D01*
X211054761Y-104833333D01*
X211292857Y-104833333D01*
X211388095Y-104880952D01*
X211435714Y-104928571D01*
X211483333Y-105023809D01*
X211483333Y-105261904D01*
X211435714Y-105357142D01*
X211388095Y-105404761D01*
X211292857Y-105452380D01*
X211054761Y-105452380D01*
X210959523Y-105404761D01*
X210911904Y-105357142D01*
%TO.C,U1*%
X174270595Y-102394880D02*
X174270595Y-103204404D01*
X174318214Y-103299642D01*
X174365833Y-103347261D01*
X174461071Y-103394880D01*
X174651547Y-103394880D01*
X174746785Y-103347261D01*
X174794404Y-103299642D01*
X174842023Y-103204404D01*
X174842023Y-102394880D01*
X175842023Y-103394880D02*
X175270595Y-103394880D01*
X175556309Y-103394880D02*
X175556309Y-102394880D01*
X175461071Y-102537738D01*
X175365833Y-102632976D01*
X175270595Y-102680595D01*
%TO.C,C2*%
X170533333Y-98657142D02*
X170485714Y-98704761D01*
X170342857Y-98752380D01*
X170247619Y-98752380D01*
X170104761Y-98704761D01*
X170009523Y-98609523D01*
X169961904Y-98514285D01*
X169914285Y-98323809D01*
X169914285Y-98180952D01*
X169961904Y-97990476D01*
X170009523Y-97895238D01*
X170104761Y-97800000D01*
X170247619Y-97752380D01*
X170342857Y-97752380D01*
X170485714Y-97800000D01*
X170533333Y-97847619D01*
X170914285Y-97847619D02*
X170961904Y-97800000D01*
X171057142Y-97752380D01*
X171295238Y-97752380D01*
X171390476Y-97800000D01*
X171438095Y-97847619D01*
X171485714Y-97942857D01*
X171485714Y-98038095D01*
X171438095Y-98180952D01*
X170866666Y-98752380D01*
X171485714Y-98752380D01*
%TO.C,R3*%
X193675833Y-95604880D02*
X193342500Y-95128690D01*
X193104404Y-95604880D02*
X193104404Y-94604880D01*
X193485357Y-94604880D01*
X193580595Y-94652500D01*
X193628214Y-94700119D01*
X193675833Y-94795357D01*
X193675833Y-94938214D01*
X193628214Y-95033452D01*
X193580595Y-95081071D01*
X193485357Y-95128690D01*
X193104404Y-95128690D01*
X194009166Y-94604880D02*
X194628214Y-94604880D01*
X194294880Y-94985833D01*
X194437738Y-94985833D01*
X194532976Y-95033452D01*
X194580595Y-95081071D01*
X194628214Y-95176309D01*
X194628214Y-95414404D01*
X194580595Y-95509642D01*
X194532976Y-95557261D01*
X194437738Y-95604880D01*
X194152023Y-95604880D01*
X194056785Y-95557261D01*
X194009166Y-95509642D01*
%TO.C,C4*%
X180533333Y-97157142D02*
X180485714Y-97204761D01*
X180342857Y-97252380D01*
X180247619Y-97252380D01*
X180104761Y-97204761D01*
X180009523Y-97109523D01*
X179961904Y-97014285D01*
X179914285Y-96823809D01*
X179914285Y-96680952D01*
X179961904Y-96490476D01*
X180009523Y-96395238D01*
X180104761Y-96300000D01*
X180247619Y-96252380D01*
X180342857Y-96252380D01*
X180485714Y-96300000D01*
X180533333Y-96347619D01*
X181390476Y-96585714D02*
X181390476Y-97252380D01*
X181152380Y-96204761D02*
X180914285Y-96919047D01*
X181533333Y-96919047D01*
%TO.C,Y1*%
X162456309Y-103718690D02*
X162456309Y-104194880D01*
X162122976Y-103194880D02*
X162456309Y-103718690D01*
X162789642Y-103194880D01*
X163646785Y-104194880D02*
X163075357Y-104194880D01*
X163361071Y-104194880D02*
X163361071Y-103194880D01*
X163265833Y-103337738D01*
X163170595Y-103432976D01*
X163075357Y-103480595D01*
%TO.C,C6*%
X163733333Y-109557142D02*
X163685714Y-109604761D01*
X163542857Y-109652380D01*
X163447619Y-109652380D01*
X163304761Y-109604761D01*
X163209523Y-109509523D01*
X163161904Y-109414285D01*
X163114285Y-109223809D01*
X163114285Y-109080952D01*
X163161904Y-108890476D01*
X163209523Y-108795238D01*
X163304761Y-108700000D01*
X163447619Y-108652380D01*
X163542857Y-108652380D01*
X163685714Y-108700000D01*
X163733333Y-108747619D01*
X164590476Y-108652380D02*
X164400000Y-108652380D01*
X164304761Y-108700000D01*
X164257142Y-108747619D01*
X164161904Y-108890476D01*
X164114285Y-109080952D01*
X164114285Y-109461904D01*
X164161904Y-109557142D01*
X164209523Y-109604761D01*
X164304761Y-109652380D01*
X164495238Y-109652380D01*
X164590476Y-109604761D01*
X164638095Y-109557142D01*
X164685714Y-109461904D01*
X164685714Y-109223809D01*
X164638095Y-109128571D01*
X164590476Y-109080952D01*
X164495238Y-109033333D01*
X164304761Y-109033333D01*
X164209523Y-109080952D01*
X164161904Y-109128571D01*
X164114285Y-109223809D01*
%TO.C,SW1*%
X170254761Y-84433333D02*
X170302380Y-84290476D01*
X170302380Y-84052380D01*
X170254761Y-83957142D01*
X170207142Y-83909523D01*
X170111904Y-83861904D01*
X170016666Y-83861904D01*
X169921428Y-83909523D01*
X169873809Y-83957142D01*
X169826190Y-84052380D01*
X169778571Y-84242857D01*
X169730952Y-84338095D01*
X169683333Y-84385714D01*
X169588095Y-84433333D01*
X169492857Y-84433333D01*
X169397619Y-84385714D01*
X169350000Y-84338095D01*
X169302380Y-84242857D01*
X169302380Y-84004761D01*
X169350000Y-83861904D01*
X169302380Y-83528571D02*
X170302380Y-83290476D01*
X169588095Y-83100000D01*
X170302380Y-82909523D01*
X169302380Y-82671428D01*
X170302380Y-81766666D02*
X170302380Y-82338095D01*
X170302380Y-82052380D02*
X169302380Y-82052380D01*
X169445238Y-82147619D01*
X169540476Y-82242857D01*
X169588095Y-82338095D01*
%TO.C,D2*%
X99066904Y-105212380D02*
X99066904Y-104212380D01*
X99305000Y-104212380D01*
X99447857Y-104260000D01*
X99543095Y-104355238D01*
X99590714Y-104450476D01*
X99638333Y-104640952D01*
X99638333Y-104783809D01*
X99590714Y-104974285D01*
X99543095Y-105069523D01*
X99447857Y-105164761D01*
X99305000Y-105212380D01*
X99066904Y-105212380D01*
X100019285Y-104307619D02*
X100066904Y-104260000D01*
X100162142Y-104212380D01*
X100400238Y-104212380D01*
X100495476Y-104260000D01*
X100543095Y-104307619D01*
X100590714Y-104402857D01*
X100590714Y-104498095D01*
X100543095Y-104640952D01*
X99971666Y-105212380D01*
X100590714Y-105212380D01*
%TO.C,C5*%
X175165833Y-109457142D02*
X175118214Y-109504761D01*
X174975357Y-109552380D01*
X174880119Y-109552380D01*
X174737261Y-109504761D01*
X174642023Y-109409523D01*
X174594404Y-109314285D01*
X174546785Y-109123809D01*
X174546785Y-108980952D01*
X174594404Y-108790476D01*
X174642023Y-108695238D01*
X174737261Y-108600000D01*
X174880119Y-108552380D01*
X174975357Y-108552380D01*
X175118214Y-108600000D01*
X175165833Y-108647619D01*
X176070595Y-108552380D02*
X175594404Y-108552380D01*
X175546785Y-109028571D01*
X175594404Y-108980952D01*
X175689642Y-108933333D01*
X175927738Y-108933333D01*
X176022976Y-108980952D01*
X176070595Y-109028571D01*
X176118214Y-109123809D01*
X176118214Y-109361904D01*
X176070595Y-109457142D01*
X176022976Y-109504761D01*
X175927738Y-109552380D01*
X175689642Y-109552380D01*
X175594404Y-109504761D01*
X175546785Y-109457142D01*
%TO.C,R6*%
X187943333Y-88932380D02*
X187610000Y-88456190D01*
X187371904Y-88932380D02*
X187371904Y-87932380D01*
X187752857Y-87932380D01*
X187848095Y-87980000D01*
X187895714Y-88027619D01*
X187943333Y-88122857D01*
X187943333Y-88265714D01*
X187895714Y-88360952D01*
X187848095Y-88408571D01*
X187752857Y-88456190D01*
X187371904Y-88456190D01*
X188800476Y-87932380D02*
X188610000Y-87932380D01*
X188514761Y-87980000D01*
X188467142Y-88027619D01*
X188371904Y-88170476D01*
X188324285Y-88360952D01*
X188324285Y-88741904D01*
X188371904Y-88837142D01*
X188419523Y-88884761D01*
X188514761Y-88932380D01*
X188705238Y-88932380D01*
X188800476Y-88884761D01*
X188848095Y-88837142D01*
X188895714Y-88741904D01*
X188895714Y-88503809D01*
X188848095Y-88408571D01*
X188800476Y-88360952D01*
X188705238Y-88313333D01*
X188514761Y-88313333D01*
X188419523Y-88360952D01*
X188371904Y-88408571D01*
X188324285Y-88503809D01*
%TO.C,C7*%
X161233333Y-107857142D02*
X161185714Y-107904761D01*
X161042857Y-107952380D01*
X160947619Y-107952380D01*
X160804761Y-107904761D01*
X160709523Y-107809523D01*
X160661904Y-107714285D01*
X160614285Y-107523809D01*
X160614285Y-107380952D01*
X160661904Y-107190476D01*
X160709523Y-107095238D01*
X160804761Y-107000000D01*
X160947619Y-106952380D01*
X161042857Y-106952380D01*
X161185714Y-107000000D01*
X161233333Y-107047619D01*
X161566666Y-106952380D02*
X162233333Y-106952380D01*
X161804761Y-107952380D01*
%TO.C,D1*%
X146566904Y-105112380D02*
X146566904Y-104112380D01*
X146805000Y-104112380D01*
X146947857Y-104160000D01*
X147043095Y-104255238D01*
X147090714Y-104350476D01*
X147138333Y-104540952D01*
X147138333Y-104683809D01*
X147090714Y-104874285D01*
X147043095Y-104969523D01*
X146947857Y-105064761D01*
X146805000Y-105112380D01*
X146566904Y-105112380D01*
X148090714Y-105112380D02*
X147519285Y-105112380D01*
X147805000Y-105112380D02*
X147805000Y-104112380D01*
X147709761Y-104255238D01*
X147614523Y-104350476D01*
X147519285Y-104398095D01*
%TO.C,C8*%
X167833333Y-107757142D02*
X167785714Y-107804761D01*
X167642857Y-107852380D01*
X167547619Y-107852380D01*
X167404761Y-107804761D01*
X167309523Y-107709523D01*
X167261904Y-107614285D01*
X167214285Y-107423809D01*
X167214285Y-107280952D01*
X167261904Y-107090476D01*
X167309523Y-106995238D01*
X167404761Y-106900000D01*
X167547619Y-106852380D01*
X167642857Y-106852380D01*
X167785714Y-106900000D01*
X167833333Y-106947619D01*
X168404761Y-107280952D02*
X168309523Y-107233333D01*
X168261904Y-107185714D01*
X168214285Y-107090476D01*
X168214285Y-107042857D01*
X168261904Y-106947619D01*
X168309523Y-106900000D01*
X168404761Y-106852380D01*
X168595238Y-106852380D01*
X168690476Y-106900000D01*
X168738095Y-106947619D01*
X168785714Y-107042857D01*
X168785714Y-107090476D01*
X168738095Y-107185714D01*
X168690476Y-107233333D01*
X168595238Y-107280952D01*
X168404761Y-107280952D01*
X168309523Y-107328571D01*
X168261904Y-107376190D01*
X168214285Y-107471428D01*
X168214285Y-107661904D01*
X168261904Y-107757142D01*
X168309523Y-107804761D01*
X168404761Y-107852380D01*
X168595238Y-107852380D01*
X168690476Y-107804761D01*
X168738095Y-107757142D01*
X168785714Y-107661904D01*
X168785714Y-107471428D01*
X168738095Y-107376190D01*
X168690476Y-107328571D01*
X168595238Y-107280952D01*
%TO.C,R7*%
X195080833Y-86299880D02*
X194747500Y-85823690D01*
X194509404Y-86299880D02*
X194509404Y-85299880D01*
X194890357Y-85299880D01*
X194985595Y-85347500D01*
X195033214Y-85395119D01*
X195080833Y-85490357D01*
X195080833Y-85633214D01*
X195033214Y-85728452D01*
X194985595Y-85776071D01*
X194890357Y-85823690D01*
X194509404Y-85823690D01*
X195414166Y-85299880D02*
X196080833Y-85299880D01*
X195652261Y-86299880D01*
%TO.C,H3*%
X79258095Y-123232380D02*
X79258095Y-122232380D01*
X79258095Y-122708571D02*
X79829523Y-122708571D01*
X79829523Y-123232380D02*
X79829523Y-122232380D01*
X80210476Y-122232380D02*
X80829523Y-122232380D01*
X80496190Y-122613333D01*
X80639047Y-122613333D01*
X80734285Y-122660952D01*
X80781904Y-122708571D01*
X80829523Y-122803809D01*
X80829523Y-123041904D01*
X80781904Y-123137142D01*
X80734285Y-123184761D01*
X80639047Y-123232380D01*
X80353333Y-123232380D01*
X80258095Y-123184761D01*
X80210476Y-123137142D01*
%TO.C,SW3*%
X84776666Y-105154761D02*
X84919523Y-105202380D01*
X85157619Y-105202380D01*
X85252857Y-105154761D01*
X85300476Y-105107142D01*
X85348095Y-105011904D01*
X85348095Y-104916666D01*
X85300476Y-104821428D01*
X85252857Y-104773809D01*
X85157619Y-104726190D01*
X84967142Y-104678571D01*
X84871904Y-104630952D01*
X84824285Y-104583333D01*
X84776666Y-104488095D01*
X84776666Y-104392857D01*
X84824285Y-104297619D01*
X84871904Y-104250000D01*
X84967142Y-104202380D01*
X85205238Y-104202380D01*
X85348095Y-104250000D01*
X85681428Y-104202380D02*
X85919523Y-105202380D01*
X86110000Y-104488095D01*
X86300476Y-105202380D01*
X86538571Y-104202380D01*
X86824285Y-104202380D02*
X87443333Y-104202380D01*
X87110000Y-104583333D01*
X87252857Y-104583333D01*
X87348095Y-104630952D01*
X87395714Y-104678571D01*
X87443333Y-104773809D01*
X87443333Y-105011904D01*
X87395714Y-105107142D01*
X87348095Y-105154761D01*
X87252857Y-105202380D01*
X86967142Y-105202380D01*
X86871904Y-105154761D01*
X86824285Y-105107142D01*
D11*
%TO.C,R8*%
X205353641Y-66020000D02*
X205046359Y-66020000D01*
X205353641Y-66780000D02*
X205046359Y-66780000D01*
%TO.C,SW7*%
X88695000Y-60912500D02*
X88695000Y-62265833D01*
X87665000Y-64972500D02*
X88935000Y-64972500D01*
X87855000Y-60912500D02*
X87855000Y-62265833D01*
X87975000Y-60912500D02*
X87975000Y-62265833D01*
X88095000Y-60912500D02*
X88095000Y-62265833D01*
X90720000Y-57992500D02*
X85880000Y-57992500D01*
X88935000Y-60912500D02*
X87665000Y-60912500D01*
X88935000Y-64972500D02*
X88935000Y-60912500D01*
X90960000Y-57752500D02*
X89577000Y-57752500D01*
X90960000Y-57752500D02*
X90960000Y-59136500D01*
X87665000Y-60912500D02*
X87665000Y-64972500D01*
X88335000Y-60912500D02*
X88335000Y-62265833D01*
X88815000Y-60912500D02*
X88815000Y-62265833D01*
X88935000Y-62265833D02*
X87665000Y-62265833D01*
X88215000Y-60912500D02*
X88215000Y-62265833D01*
X88575000Y-60912500D02*
X88575000Y-62265833D01*
X85880000Y-57992500D02*
X85880000Y-67892500D01*
X90720000Y-57992500D02*
X90720000Y-67892500D01*
X88455000Y-60912500D02*
X88455000Y-62265833D01*
X87735000Y-60912500D02*
X87735000Y-62265833D01*
X90720000Y-67892500D02*
X85880000Y-67892500D01*
%TO.C,SW6*%
X158185000Y-129080000D02*
X162685000Y-129080000D01*
X156935000Y-125080000D02*
X156935000Y-126580000D01*
X162685000Y-122580000D02*
X158185000Y-122580000D01*
X163935000Y-126580000D02*
X163935000Y-125080000D01*
%TO.C,C3*%
X169360000Y-104807836D02*
X169360000Y-104592164D01*
X168640000Y-104807836D02*
X168640000Y-104592164D01*
%TO.C,C1*%
X171859420Y-94790000D02*
X172140580Y-94790000D01*
X171859420Y-95810000D02*
X172140580Y-95810000D01*
%TO.C,R4*%
X174680000Y-95346359D02*
X174680000Y-95653641D01*
X173920000Y-95346359D02*
X173920000Y-95653641D01*
%TO.C,J1*%
X222940000Y-78350000D02*
X212490000Y-78350000D01*
X209990000Y-85650000D02*
X205490000Y-85650000D01*
X222940000Y-85650000D02*
X212490000Y-85650000D01*
X209990000Y-78350000D02*
X205490000Y-78350000D01*
X211010000Y-77970000D02*
X210010000Y-77970000D01*
X222940000Y-85650000D02*
X222940000Y-78350000D01*
X203440000Y-83500000D02*
X203440000Y-80500000D01*
%TO.C,SW2*%
X150935000Y-122330000D02*
X146435000Y-122330000D01*
X152185000Y-126330000D02*
X152185000Y-124830000D01*
X146435000Y-128830000D02*
X150935000Y-128830000D01*
X145185000Y-124830000D02*
X145185000Y-126330000D01*
%TO.C,R1*%
X149446359Y-96320000D02*
X149753641Y-96320000D01*
X149446359Y-97080000D02*
X149753641Y-97080000D01*
%TO.C,J4*%
X131525000Y-68940000D02*
X113745000Y-68940000D01*
X182525000Y-63860000D02*
X182525000Y-68940000D01*
X93500000Y-58200000D02*
X93500000Y-74600000D01*
X164745000Y-68940000D02*
X164745000Y-67670000D01*
X163475000Y-65130000D02*
X164745000Y-65130000D01*
X201500000Y-74600000D02*
X201500000Y-58200000D01*
X182525000Y-68940000D02*
X164745000Y-68940000D01*
X112475000Y-67670000D02*
X112475000Y-65130000D01*
X163475000Y-67670000D02*
X163475000Y-65130000D01*
X113745000Y-68940000D02*
X113745000Y-67670000D01*
X164745000Y-65130000D02*
X164745000Y-63860000D01*
X113745000Y-63860000D02*
X131525000Y-63860000D01*
X201500000Y-58200000D02*
X93500000Y-58200000D01*
X164745000Y-63860000D02*
X182525000Y-63860000D01*
X113745000Y-67670000D02*
X112475000Y-67670000D01*
X131525000Y-63860000D02*
X131525000Y-68940000D01*
X112475000Y-65130000D02*
X113745000Y-65130000D01*
X164745000Y-67670000D02*
X163475000Y-67670000D01*
X113745000Y-65130000D02*
X113745000Y-63860000D01*
X93500000Y-74600000D02*
X201500000Y-74600000D01*
%TO.C,SW4*%
X138435000Y-122330000D02*
X133935000Y-122330000D01*
X133935000Y-128830000D02*
X138435000Y-128830000D01*
X132685000Y-124830000D02*
X132685000Y-126330000D01*
X139685000Y-126330000D02*
X139685000Y-124830000D01*
%TO.C,C9*%
X210445000Y-75491252D02*
X210445000Y-74968748D01*
X208975000Y-75491252D02*
X208975000Y-74968748D01*
%TO.C,R2*%
X98153641Y-96120000D02*
X97846359Y-96120000D01*
X98153641Y-96880000D02*
X97846359Y-96880000D01*
%TO.C,C10*%
X208975000Y-71291252D02*
X208975000Y-70768748D01*
X210445000Y-71291252D02*
X210445000Y-70768748D01*
%TO.C,U2*%
X218110000Y-69690000D02*
X218110000Y-70950000D01*
X218110000Y-76510000D02*
X218110000Y-75250000D01*
X214350000Y-76510000D02*
X218110000Y-76510000D01*
X212100000Y-69690000D02*
X218110000Y-69690000D01*
%TO.C,D4*%
X204435000Y-59555000D02*
X204435000Y-62645000D01*
X204435000Y-62644830D02*
G75*
G03*
X209985000Y-61099538I2560000J1544830D01*
G01*
X209985000Y-61100462D02*
G75*
G03*
X204435000Y-59555170I-2990000J462D01*
G01*
X209495000Y-61100000D02*
G75*
G03*
X209495000Y-61100000I-2500000J0D01*
G01*
%TO.C,J2*%
X186172500Y-101352500D02*
X183512500Y-101352500D01*
X186172500Y-93672500D02*
X183512500Y-93672500D01*
X183512500Y-101352500D02*
X183512500Y-93672500D01*
X186172500Y-102622500D02*
X186172500Y-103952500D01*
X186172500Y-103952500D02*
X184842500Y-103952500D01*
X186172500Y-101352500D02*
X186172500Y-93672500D01*
%TO.C,J3*%
X192430000Y-93530000D02*
X191100000Y-93530000D01*
X192430000Y-90930000D02*
X192430000Y-83250000D01*
X192430000Y-90930000D02*
X189770000Y-90930000D01*
X192430000Y-92200000D02*
X192430000Y-93530000D01*
X189770000Y-90930000D02*
X189770000Y-83250000D01*
X192430000Y-83250000D02*
X189770000Y-83250000D01*
%TO.C,R5*%
X206880000Y-89053641D02*
X206880000Y-88746359D01*
X206120000Y-89053641D02*
X206120000Y-88746359D01*
%TO.C,D3*%
X189002500Y-98997500D02*
X189002500Y-102087500D01*
X194552500Y-100542962D02*
G75*
G03*
X189002500Y-98997670I-2990000J462D01*
G01*
X189002500Y-102087330D02*
G75*
G03*
X194552500Y-100542038I2560000J1544830D01*
G01*
X194062500Y-100542500D02*
G75*
G03*
X194062500Y-100542500I-2500000J0D01*
G01*
%TO.C,SW5*%
X206650000Y-100000000D02*
X206650000Y-101500000D01*
X212400000Y-97500000D02*
X207900000Y-97500000D01*
X207900000Y-104000000D02*
X212400000Y-104000000D01*
X213650000Y-101500000D02*
X213650000Y-100000000D01*
%TO.C,U1*%
X171432500Y-99762500D02*
X170142500Y-99762500D01*
X171432500Y-106532500D02*
X171432500Y-106082500D01*
X171432500Y-99312500D02*
X171432500Y-99762500D01*
X178202500Y-99312500D02*
X178652500Y-99312500D01*
X171882500Y-99312500D02*
X171432500Y-99312500D01*
X178652500Y-99312500D02*
X178652500Y-99762500D01*
X178202500Y-106532500D02*
X178652500Y-106532500D01*
X171882500Y-106532500D02*
X171432500Y-106532500D01*
X178652500Y-106532500D02*
X178652500Y-106082500D01*
%TO.C,C2*%
X172192164Y-96640000D02*
X172407836Y-96640000D01*
X172192164Y-97360000D02*
X172407836Y-97360000D01*
%TO.C,R3*%
X193688859Y-95942500D02*
X193996141Y-95942500D01*
X193688859Y-96702500D02*
X193996141Y-96702500D01*
%TO.C,C4*%
X180692164Y-98140000D02*
X180907836Y-98140000D01*
X180692164Y-98860000D02*
X180907836Y-98860000D01*
%TO.C,Y1*%
X163962500Y-101922500D02*
X163962500Y-105922500D01*
X167262500Y-101922500D02*
X163962500Y-101922500D01*
%TO.C,C6*%
X166080336Y-109392500D02*
X165864664Y-109392500D01*
X166080336Y-108672500D02*
X165864664Y-108672500D01*
%TO.C,SW1*%
X171450000Y-76100000D02*
X176650000Y-76100000D01*
X171050000Y-90400000D02*
X169750000Y-90400000D01*
X177400000Y-78150000D02*
X177400000Y-88050000D01*
X176650000Y-90100000D02*
X171450000Y-90100000D01*
X170700000Y-88050000D02*
X170700000Y-78150000D01*
X169750000Y-90400000D02*
X169750000Y-89100000D01*
%TO.C,D2*%
X102365000Y-102345000D02*
X102365000Y-99255000D01*
X102365000Y-99255170D02*
G75*
G03*
X96815000Y-100800462I-2560000J-1544830D01*
G01*
X96815000Y-100799538D02*
G75*
G03*
X102365000Y-102344830I2990000J-462D01*
G01*
X102305000Y-100800000D02*
G75*
G03*
X102305000Y-100800000I-2500000J0D01*
G01*
%TO.C,C5*%
X177440336Y-108640000D02*
X177224664Y-108640000D01*
X177440336Y-109360000D02*
X177224664Y-109360000D01*
%TO.C,R6*%
X187830000Y-90026359D02*
X187830000Y-90333641D01*
X188590000Y-90026359D02*
X188590000Y-90333641D01*
%TO.C,C7*%
X163424664Y-107162500D02*
X163640336Y-107162500D01*
X163424664Y-107882500D02*
X163640336Y-107882500D01*
%TO.C,D1*%
X149865000Y-102245000D02*
X149865000Y-99155000D01*
X149865000Y-99155170D02*
G75*
G03*
X144315000Y-100700462I-2560000J-1544830D01*
G01*
X144315000Y-100699538D02*
G75*
G03*
X149865000Y-102244830I2990000J-462D01*
G01*
X149805000Y-100700000D02*
G75*
G03*
X149805000Y-100700000I-2500000J0D01*
G01*
%TO.C,C8*%
X166090336Y-107162500D02*
X165874664Y-107162500D01*
X166090336Y-107882500D02*
X165874664Y-107882500D01*
%TO.C,R7*%
X194867500Y-87493859D02*
X194867500Y-87801141D01*
X195627500Y-87493859D02*
X195627500Y-87801141D01*
%TO.C,SW3*%
X83860000Y-103750000D02*
X88360000Y-103750000D01*
X82610000Y-99750000D02*
X82610000Y-101250000D01*
X89610000Y-101250000D02*
X89610000Y-99750000D01*
X88360000Y-97250000D02*
X83860000Y-97250000D01*
%TD*%
M02*
