M48
; DRILL file {KiCad (6.0.5)} date Fri Aug 19 06:05:38 2022
; FORMAT={-:-/ absolute / metric / decimal}
; #@! TF.CreationDate,2022-08-19T06:05:38-03:00
; #@! TF.GenerationSoftware,Kicad,Pcbnew,(6.0.5)
; #@! TF.FileFunction,MixedPlating,1,2
FMAT,2
METRIC
; #@! TA.AperFunction,Plated,PTH,ViaDrill
T1C0.300
; #@! TA.AperFunction,Plated,PTH,ComponentDrill
T2C0.800
; #@! TA.AperFunction,Plated,PTH,ComponentDrill
T3C0.900
; #@! TA.AperFunction,Plated,PTH,ComponentDrill
T4C0.920
; #@! TA.AperFunction,Plated,PTH,ComponentDrill
T5C1.000
; #@! TA.AperFunction,Plated,PTH,ComponentDrill
T6C1.100
; #@! TA.AperFunction,Plated,PTH,ComponentDrill
T7C1.200
; #@! TA.AperFunction,Plated,PTH,ComponentDrill
T8C1.230
; #@! TA.AperFunction,Plated,PTH,ComponentDrill
T9C1.500
; #@! TA.AperFunction,NonPlated,NPTH,ComponentDrill
T10C2.100
; #@! TA.AperFunction,NonPlated,NPTH,ComponentDrill
T11C2.500
%
G90
G05
T1
X82.82Y-96.1
X130.6Y-127.8
X165.492Y-110.492
X172.2Y-103.5
X172.791Y-99.881
X177.1Y-105.7
X177.7Y-100.9
X187.597Y-95.002
X193.347Y-84.547
X198.5Y-68.6
X202.2Y-82.0
X202.2Y-82.0
X207.82Y-74.28
X209.7Y-68.7
X213.45Y-95.45
T2
X88.3Y-59.133
X88.3Y-66.752
T3
X98.535Y-100.8
X101.075Y-100.8
X146.035Y-100.7
X148.575Y-100.7
X172.8Y-79.1
X172.8Y-83.1
X172.8Y-87.1
X190.292Y-100.542
X192.832Y-100.542
X205.725Y-61.1
X208.265Y-61.1
T4
X204.51Y-82.0
X206.51Y-82.0
X208.51Y-82.0
X210.51Y-82.0
T5
X184.843Y-95.002
X184.843Y-97.542
X184.843Y-100.082
X184.843Y-102.623
X191.1Y-84.58
X191.1Y-87.12
X191.1Y-89.66
X191.1Y-92.2
T6
X82.86Y-98.25
X82.86Y-102.75
X89.36Y-98.25
X89.36Y-102.75
X132.935Y-123.33
X132.935Y-127.83
X139.435Y-123.33
X139.435Y-127.83
X145.435Y-123.33
X145.435Y-127.83
X151.935Y-123.33
X151.935Y-127.83
X157.185Y-123.58
X157.185Y-128.08
X163.685Y-123.58
X163.685Y-128.08
X206.9Y-98.5
X206.9Y-103.0
X213.4Y-98.5
X213.4Y-103.0
T7
X171.05Y-77.1
X171.05Y-89.1
X177.05Y-77.1
X177.05Y-89.1
T8
X96.5Y-66.4
X198.5Y-66.4
T9
X204.24Y-79.28
X204.24Y-84.72
X211.24Y-79.28
X211.24Y-84.72
T10
X80.02Y-62.58
X80.02Y-125.98
X216.52Y-62.58
X216.52Y-125.98
T11
X122.65Y-61.65
X122.65Y-71.15
X172.35Y-61.65
X172.35Y-71.15
T0
M30
